<svg width="176" height="41" viewBox="0 0 176 41" fill="none" xmlns="http://www.w3.org/2000/svg">
<path d="M29.0942 12.6927L13.9961 38.7815C12.4662 41.4253 9.07782 40.6809 8.18327 37.4948L0.645536 10.6982C0.439386 10.1324 0.358568 9.5206 0.409788 8.91337C0.461012 8.30629 0.642794 7.72133 0.940053 7.20713C1.23732 6.69307 1.64148 6.26445 2.119 5.95713C2.59652 5.64982 3.13362 5.47245 3.68574 5.43985L26.3204 6.15192C29.007 6.23625 30.6241 10.0489 29.0942 12.6927Z" fill="#1DACE3"/>
<path d="M33.2876 20.6126L7.17705 36.6621C6.57972 37.029 5.90209 37.2068 5.21893 37.176C4.53577 37.1451 3.8736 36.9068 3.30546 36.4873C2.73732 36.0677 2.28527 35.4833 1.99915 34.7985C1.71304 34.1136 1.60399 33.3549 1.68404 32.606L4.67177 4.65488C4.74057 4.01144 4.94689 3.39511 5.27375 2.85657C5.60063 2.31818 6.03872 1.87302 6.55201 1.55761C7.06529 1.24234 7.63911 1.06579 8.22629 1.04275C8.81346 1.01972 9.39723 1.1507 9.92957 1.42483L33.0526 13.3336C33.6705 13.6535 34.1965 14.1551 34.5726 14.7832C34.9489 15.4114 35.1607 16.1416 35.185 16.894C35.2093 17.6463 35.0451 18.3914 34.7104 19.0475C34.3756 19.7036 33.8833 20.2451 33.2876 20.6126Z" fill="#FB6908"/>
<path d="M4.58366 5.47256L3.09422 19.406L7.83511 36.2538L19.6607 28.9874L29.0942 12.6927C29.2999 12.3333 29.4537 11.9408 29.55 11.5293L18.6436 5.91215L4.58366 5.47256Z" fill="#001A49"/>
<path d="M48.5859 10.8359H57.9609V13.1797H56.2031L58.6201 20.7456C58.8643 21.5024 59.084 22.3984 59.2793 23.4336C59.4746 22.4033 59.6943 21.5073 59.9385 20.7456L62.3555 13.1797H59.7188V10.8359H69.0938V13.1797H67.043L69.46 20.7456C69.7041 21.5024 69.9238 22.3984 70.1191 23.4336C70.3145 22.4033 70.5342 21.5073 70.7783 20.7456L73.1953 13.1797H70.8516V10.8359H78.1758V13.1797H76.125L70.2144 29H67.3872L63.8862 19.625C63.6226 18.917 63.4541 18.3311 63.3809 17.8672C63.3076 18.3311 63.1392 18.917 62.8755 19.625L59.3745 29H56.5474L50.6367 13.1797H48.5859V10.8359ZM89.9086 20.1743V26.6562H91.3734V29H86.8104L86.1586 27.4766C85.6605 28.1895 85.0819 28.6777 84.4228 28.9414C83.7685 29.2051 82.8529 29.3369 81.6762 29.3369C81.0658 29.3369 80.497 29.2295 79.9696 29.0146C79.4472 28.8047 79.0004 28.5166 78.6293 28.1504C78.2631 27.7842 77.975 27.3447 77.765 26.832C77.56 26.3193 77.4574 25.77 77.4574 25.1841C77.4574 24.1733 77.8529 23.3359 78.6439 22.6719C79.435 22.0029 80.4457 21.6685 81.6762 21.6685C82.6674 21.6685 83.4877 21.7637 84.1371 21.9541C84.7865 22.1396 85.3432 22.4375 85.807 22.8477V19.7422C85.807 19.3027 85.746 18.9365 85.6239 18.6436C85.5067 18.3457 85.3285 18.1187 85.0893 17.9624C84.85 17.8013 84.5814 17.689 84.2836 17.6255C83.9857 17.562 83.6293 17.5303 83.2143 17.5303C82.8822 17.5303 82.5819 17.6011 82.3134 17.7427C82.4647 18.0601 82.5404 18.3945 82.5404 18.7461C82.5404 19.3955 82.3109 19.9497 81.852 20.4087C81.3979 20.8628 80.8461 21.0898 80.1967 21.0898C79.5473 21.0898 78.9931 20.8628 78.5341 20.4087C78.08 19.9497 77.8529 19.3955 77.8529 18.7461C77.8529 18.4141 77.9164 18.1016 78.0434 17.8086C78.1752 17.5156 78.3559 17.2593 78.5854 17.0396C78.7807 16.8345 78.9833 16.6514 79.1933 16.4902C79.4032 16.3242 79.6669 16.1606 79.9843 15.9995C80.3065 15.8335 80.6557 15.6968 81.0316 15.5894C81.4076 15.4819 81.8568 15.3965 82.3793 15.333C82.9066 15.2646 83.4828 15.2305 84.1078 15.2305C84.9184 15.2305 85.6801 15.3501 86.393 15.5894C87.1059 15.8286 87.7211 16.1606 88.2387 16.5854C88.7563 17.0103 89.164 17.5327 89.4618 18.1528C89.7597 18.7729 89.9086 19.4468 89.9086 20.1743ZM85.807 25.748V24.7373C85.5043 24.4492 85.1625 24.2075 84.7816 24.0122C84.4057 23.812 84.0565 23.7119 83.7343 23.7119C83.0409 23.7119 82.5526 23.8291 82.2694 24.0635C81.9862 24.293 81.8446 24.6665 81.8446 25.1841C81.8446 25.8042 81.9667 26.2607 82.2108 26.5537C82.455 26.8467 82.9091 26.9932 83.5731 26.9932C83.9491 26.9932 84.3397 26.8735 84.745 26.6343C85.1552 26.3901 85.5092 26.0947 85.807 25.748ZM96.5145 12.5938H97.9793V15.5234H102.081V17.8672H97.9793V25.4844C97.9793 25.8164 98.0721 26.0947 98.2576 26.3193C98.448 26.5439 98.7459 26.6562 99.1512 26.6562C99.6053 26.6562 99.991 26.5073 100.308 26.2095C100.626 25.9067 100.826 25.4697 100.909 24.8984L102.667 25.1914C102.594 25.7627 102.452 26.2925 102.242 26.7808C102.037 27.2642 101.768 27.6963 101.436 28.0771C101.104 28.4531 100.692 28.751 100.199 28.9707C99.7103 29.1855 99.1658 29.293 98.5652 29.293C97.1053 29.293 95.9578 28.9536 95.1229 28.2749C94.2928 27.5913 93.8777 26.6611 93.8777 25.4844V17.8672H92.4129V15.5234H92.7059C93.4578 15.5234 94.1219 15.3086 94.698 14.8789C95.2742 14.4492 95.8797 13.6875 96.5145 12.5938ZM114.195 18.0942C113.638 17.7476 112.93 17.5742 112.071 17.5742C111.724 17.5742 111.402 17.623 111.104 17.7207C110.806 17.8135 110.52 17.9746 110.247 18.2041C109.978 18.4336 109.749 18.7241 109.558 19.0757C109.368 19.4272 109.217 19.874 109.104 20.416C108.992 20.958 108.936 21.5732 108.936 22.2617C108.936 22.9502 108.997 23.563 109.119 24.1001C109.241 24.6372 109.402 25.0767 109.602 25.4185C109.807 25.7603 110.051 26.041 110.335 26.2607C110.623 26.4805 110.918 26.6367 111.221 26.7295C111.524 26.8174 111.851 26.8613 112.202 26.8613C113.233 26.8613 114.036 26.6636 114.612 26.2681C115.193 25.8677 115.657 25.2524 116.004 24.4224L117.952 25.0962C117.776 25.5698 117.551 26.0166 117.278 26.4365C117.009 26.8516 116.685 27.2349 116.304 27.5864C115.923 27.938 115.498 28.2407 115.029 28.4946C114.566 28.7437 114.041 28.939 113.455 29.0806C112.869 29.2222 112.251 29.293 111.602 29.293C110.64 29.293 109.729 29.1245 108.87 28.7876C108.015 28.4507 107.271 27.9819 106.636 27.3813C106.006 26.7759 105.506 26.0312 105.134 25.1475C104.768 24.2637 104.585 23.3018 104.585 22.2617C104.585 21.4268 104.702 20.6406 104.937 19.9033C105.171 19.166 105.501 18.5142 105.925 17.9478C106.355 17.3813 106.858 16.8931 107.434 16.4829C108.01 16.0728 108.65 15.7627 109.353 15.5527C110.056 15.3379 110.794 15.2305 111.565 15.2305C112.175 15.2305 112.749 15.2891 113.286 15.4062C113.823 15.5186 114.302 15.6748 114.722 15.875C115.147 16.0703 115.542 16.3145 115.908 16.6074C116.275 16.9004 116.594 17.2129 116.868 17.5449C117.146 17.8721 117.405 18.2407 117.644 18.6509C117.893 19.0366 118.018 19.459 118.018 19.918C118.018 20.5674 117.788 21.1216 117.329 21.5806C116.875 22.0347 116.323 22.2617 115.674 22.2617C115.025 22.2617 114.47 22.0347 114.011 21.5806C113.557 21.1216 113.33 20.5674 113.33 19.918C113.33 19.5566 113.406 19.2173 113.557 18.8999C113.714 18.5825 113.926 18.314 114.195 18.0942ZM129.033 15.2305C129.716 15.2305 130.315 15.3232 130.827 15.5088C131.34 15.6943 131.76 15.9507 132.087 16.2778C132.414 16.6001 132.678 17.0127 132.878 17.5156C133.083 18.0137 133.225 18.5508 133.303 19.127C133.386 19.6982 133.427 20.3525 133.427 21.0898V26.6562H134.892V29H127.861V26.6562H129.326V20.7969C129.326 20.0254 129.255 19.4248 129.113 18.9951C128.977 18.5654 128.776 18.27 128.513 18.1089C128.254 17.9478 127.9 17.8672 127.451 17.8672C127.036 17.8672 126.608 18.0454 126.169 18.4019C125.734 18.7583 125.322 19.2563 124.931 19.896V26.6562H126.396V29H119.365V26.6562H120.83V13.1797H119.365V10.8359H124.931V17.5229C125.107 17.1958 125.315 16.9004 125.554 16.6367C125.793 16.373 126.076 16.1338 126.403 15.9189C126.731 15.6992 127.116 15.5308 127.561 15.4136C128.01 15.2915 128.501 15.2305 129.033 15.2305ZM138.517 13.9634C138.063 13.5044 137.836 12.9502 137.836 12.3008C137.836 11.6514 138.063 11.0996 138.517 10.6455C138.976 10.1865 139.53 9.95703 140.18 9.95703C140.829 9.95703 141.381 10.1865 141.835 10.6455C142.294 11.0996 142.523 11.6514 142.523 12.3008C142.523 12.9502 142.294 13.5044 141.835 13.9634C141.381 14.4175 140.829 14.6445 140.18 14.6445C139.53 14.6445 138.976 14.4175 138.517 13.9634ZM136.664 15.5234H142.23V26.6562H143.695V29H136.664V26.6562H138.129V17.8672H136.664V15.5234ZM153.67 29H145.76V26.6562H147.811L152.564 20.1157L147.518 13.1797H145.76V10.8359H155.135V13.1797H153.311L156.871 18.0796L160.438 13.1797H157.479V10.8359H165.389V13.1797H163.338L158.695 19.5664L163.844 26.6562H165.389V29H156.014V26.6562H158.05L154.381 21.6099L150.711 26.6562H153.67V29Z" fill="white"/>
</svg>
